#!OML:ASF I:\Random Stuff\random\construction\7_22_03\Session 2\subj1.ASF
:FULLY-SPECIFIED
:DEGREES
627
root 4.4624 17.7083 -8.19351 17.3086 -26.824 -6.69622
lowerback 13.4302 -1.26905 0.0567621
upperback 5.94955 -1.92087 -5.7837
thorax -1.46225 -0.934928 -5.83431
lowerneck -21.385 4.80077 -1.51851
upperneck 45.3452 9.21161 -2.38494
head 23.1424 2.42997 1.1806
rclavicle 1.27222e-014 -1.74931e-014
rhumerus -21.3966 47.7173 -38.6734
rradius 121.538
rwrist -40.8013
rhand -16.7285 10.7561
rfingers 7.12502
rthumb 9.49733 -19.0099
lclavicle 1.27222e-014 -1.74931e-014
lhumerus 7.63459 -53.549 79.079
lradius 47.0802
lwrist 19.6465
lhand -17.4877 50.7619
lfingers 7.12502
lthumb 8.76473 80.5599
rfemur -19.0886 -3.38082 25.9181
rtibia 2.94201e-014
rfoot 0.149523 8.08665
rtoes -32.6569
lfemur -26.188 -3.51536 -4.63661
ltibia 26.6816
lfoot -14.6415 8.64049
ltoes -29.7962
628
root 4.46855 17.7086 -8.18371 17.3412 -26.7988 -6.76011
lowerback 13.3293 -1.3535 0.178668
upperback 5.92377 -2.01504 -5.79234
thorax -1.44885 -0.98 -5.90044
lowerneck -21.4276 4.80697 -1.42042
upperneck 45.488 9.17847 -2.37365
head 23.2997 2.42341 1.16262
rclavicle -4.77083e-014 2.38542e-014
rhumerus -22.7094 46.8206 -39.1738
rradius 121.97
rwrist -40.3964
rhand -16.1597 10.9152
rfingers 7.12502
rthumb 10.0461 -18.825
lclavicle -4.77083e-014 2.38542e-014
lhumerus 7.4459 -53.3478 79.2309
lradius 46.9275
lwrist 19.5944
lhand -17.519 50.7771
lfingers 7.12502
lthumb 8.73451 80.5764
rfemur -19.0696 -3.42243 25.9587
rtibia 2.46493e-014
rfoot 0.115559 8.10256
rtoes -32.7345
lfemur -26.1663 -3.58518 -4.58063
ltibia 26.671
lfoot -14.7071 8.62196
ltoes -29.1995
629
root 4.47377 17.7097 -8.17224 17.2973 -26.8524 -6.73914
lowerback 13.2665 -1.41854 0.133498
upperback 5.88677 -2.10553 -5.79705
thorax -1.46236 -1.02627 -5.86614
lowerneck -21.3467 4.85134 -1.19416
upperneck 45.5466 9.2225 -2.55343
head 23.3728 2.45097 1.02882
rclavicle -3.97569e-014 -4.45278e-014
rhumerus -23.8766 45.9625 -39.5052
rradius 122.362
rwrist -40.288
rhand -15.6888 11.249
rfingers 7.12502
rthumb 10.5003 -18.4687
lclavicle -3.97569e-014 -4.45278e-014
lhumerus 7.25516 -53.1283 79.3997
lradius 46.7104
lwrist 19.641
lhand -17.6194 50.6779
lfingers 7.12502
lthumb 8.63768 80.4812
rfemur -18.9939 -3.4195 25.8927
rtibia 3.02153e-014
rfoot 0.0960866 8.11874
rtoes -32.6717
lfemur -26.0709 -3.5815 -4.64822
ltibia 26.6482
lfoot -14.7145 8.62187
ltoes -29.2219
630
root 4.47847 17.711 -8.1587 17.1756 -26.9776 -6.69664
lowerback 13.2194 -1.46579 0.0601847
upperback 5.88686 -2.17668 -5.83149
thorax -1.44317 -1.06257 -5.85088
lowerneck -21.0931 4.99348 -1.05483
upperneck 45.1933 9.52749 -2.94007
head 23.023 2.5622 0.855203
rclavicle -5.88403e-014 -1.59028e-014
rhumerus -25.0166 45.1073 -39.8213
rradius 122.715
rwrist -40.4098
rhand -15.1595 11.5806
rfingers 7.12502
rthumb 11.0109 -18.1106
lclavicle -5.88403e-014 -1.59028e-014
lhumerus 7.07877 -52.9467 79.4517
lradius 46.5348
lwrist 19.6978
lhand -17.7589 50.4535
lfingers 7.12502
lthumb 8.50299 80.2623
rfemur -18.8411 -3.36324 25.7779
rtibia -3.65764e-014
rfoot 0.0760417 8.13181
rtoes -32.6023
lfemur -25.8645 -3.66468 -4.74339
ltibia 26.6229
lfoot -14.7764 8.78015
ltoes -29.3759
631
root 4.48275 17.7116 -8.14698 17.0982 -27.1313 -6.71482
lowerback 13.1574 -1.48923 0.0282904
upperback 5.88559 -2.211 -5.85933
thorax -1.41455 -1.07992 -5.8582
lowerneck -21.0598 5.05931 -1.03646
upperneck 45.1732 9.62887 -2.96361
head 22.999 2.59851 0.862039
rclavicle 0 4.77083e-015
rhumerus -26.3709 44.5002 -40.3558
rradius 123.094
rwrist -40.0639
rhand -15.3435 11.4814
rfingers 7.12502
rthumb 10.8335 -18.2192
lclavicle 0 4.77083e-015
lhumerus 6.83411 -52.8173 79.4946
lradius 46.5066
lwrist 19.654
lhand -17.7654 50.4176
lfingers 7.12502
lthumb 8.49672 80.2267
rfemur -18.7183 -3.25548 25.721
rtibia -1.66979e-014
rfoot 0.0454508 8.14601
rtoes -32.6136
lfemur -25.6685 -3.68591 -4.78722
ltibia 26.6044
lfoot -14.8492 8.91812
ltoes -29.337
